<?xml version="1.0" standalone="no"?>
<!DOCTYPE svg PUBLIC "-//W3C//DTD SVG 20010904//EN"
 "http://www.w3.org/TR/2001/REC-SVG-20010904/DTD/svg10.dtd">
<svg version="1.0" xmlns="http://www.w3.org/2000/svg"
 width="300.000000pt" height="300.000000pt" viewBox="0 0 300.000000 300.000000"
 preserveAspectRatio="xMidYMid meet">
<metadata>
Created by potrace 1.14, written by Peter Selinger 2001-2017
</metadata>
<g transform="translate(0.000000,300.000000) scale(0.100000,-0.100000)"
fill="#000000" stroke="none">
<path d="M1348 2995 c-2 -2 -22 -6 -44 -9 -115 -13 -285 -57 -336 -86 -10 -6
-23 -10 -30 -10 -35 -1 -280 -140 -344 -195 -7 -5 -29 -23 -50 -40 -155 -125
-315 -332 -408 -530 -32 -67 -92 -247 -100 -298 -3 -19 -8 -40 -11 -48 -12
-33 -17 -94 -19 -260 -2 -140 1 -195 16 -270 10 -52 20 -103 22 -114 8 -41 67
-207 98 -272 37 -79 126 -226 139 -231 5 -2 9 -8 9 -14 0 -14 91 -120 170
-196 71 -70 183 -158 245 -192 22 -12 47 -27 55 -34 18 -14 134 -70 187 -90
21 -8 47 -17 58 -22 24 -9 25 -9 100 -30 142 -39 253 -52 419 -49 88 2 177 6
196 10 193 37 315 76 454 146 73 37 203 117 233 144 6 5 31 26 54 45 78 64
223 218 253 269 6 10 29 45 50 77 146 220 226 487 231 774 4 208 -16 336 -82
530 -38 112 -139 307 -193 373 -6 7 -31 39 -57 72 -146 184 -347 335 -583 438
-47 21 -179 65 -210 71 -14 3 -36 8 -50 11 -87 21 -154 27 -301 30 -92 2 -168
2 -171 0z"/>
</g>
</svg>
